<?xml version="1.0" encoding="UTF-8" standalone="no"?>
<svg
   xmlns:dc="http://purl.org/dc/elements/1.1/"
   xmlns:cc="http://creativecommons.org/ns#"
   xmlns:rdf="http://www.w3.org/1999/02/22-rdf-syntax-ns#"
   xmlns:svg="http://www.w3.org/2000/svg"
   xmlns="http://www.w3.org/2000/svg"
   xmlns:sodipodi="http://sodipodi.sourceforge.net/DTD/sodipodi-0.dtd"
   xmlns:inkscape="http://www.inkscape.org/namespaces/inkscape"
   inkscape:version="1.0rc1 (09960d6, 2020-04-09)"
   sodipodi:docname="pirateplayer_logo_sand.svg"
   id="svg34"
   version="1.1"
   width="128"
   viewBox="0 0 128 128"
   height="128"
   inkscape:export-filename="/home/alessio/Scaricati/pirateplayer_logo_sand_L.png"
   inkscape:export-xdpi="720"
   inkscape:export-ydpi="720">
  <metadata
     id="metadata40">
    <rdf:RDF>
      <cc:Work
         rdf:about="">
        <dc:format>image/svg+xml</dc:format>
        <dc:type
           rdf:resource="http://purl.org/dc/dcmitype/StillImage" />
        <dc:title />
      </cc:Work>
    </rdf:RDF>
  </metadata>
  <defs
     id="defs38">
    <rect
       id="rect44"
       height="32.713265"
       width="30.34175"
       y="51.147596"
       x="4.481392" />
    <rect
       x="4.4813919"
       y="51.147594"
       width="30.341749"
       height="32.713264"
       id="rect44-8" />
    <rect
       x="4.4813919"
       y="51.147594"
       width="30.341749"
       height="32.713264"
       id="rect59" />
  </defs>
  <sodipodi:namedview
     inkscape:current-layer="svg34"
     inkscape:window-maximized="1"
     inkscape:window-y="0"
     inkscape:window-x="0"
     inkscape:cy="64"
     inkscape:cx="10.025175"
     inkscape:zoom="5.5859375"
     showgrid="true"
     id="namedview36"
     inkscape:window-height="998"
     inkscape:window-width="1920"
     inkscape:pageshadow="2"
     inkscape:pageopacity="0"
     guidetolerance="10"
     gridtolerance="10"
     objecttolerance="10"
     borderopacity="1"
     bordercolor="#666666"
     pagecolor="#ffffff"
     inkscape:document-rotation="0">
    <inkscape:grid
       id="grid48"
       type="xygrid" />
  </sodipodi:namedview>
  <g
     inkscape:label="background"
     id="layer1"
     inkscape:groupmode="layer">
    <ellipse
       ry="64.005348"
       rx="63.78392"
       cy="64.088799"
       cx="64.135681"
       id="path985"
       style="fill:#2e3436;fill-opacity:1;stroke-width:1.51083;stroke-miterlimit:4;stroke-dasharray:none" />
  </g>
  <path
     id="path4"
     style="fill:#d3d7cf;fill-opacity:1"
     d="M111.38,86.92a10,10,0,0,0-14.15,0L75.31,65,64.71,75.61c.06.06,21.9,21.9,21.95,22a10,10,0,0,0-.74,14.81c6.8,6.8,18.34.94,17-8.5A10,10,0,0,0,111.38,86.92Z" />
  <path
     id="path6"
     style="fill: #fff"
     d="M107.55,93.74a3,3,0,0,1-2.12-.88,1.49,1.49,0,0,0-2.11,0,3,3,0,1,1-4.24-4.24,7.49,7.49,0,0,1,10.59,0,3,3,0,0,1-2.12,5.12Z" />
  <path
     id="path8"
     style="fill:#d3d7cf;fill-opacity:1"
     d="M42.08,31.77a10,10,0,0,0,0-14.15c-6.8-6.8-18.34-.94-17,8.5a10,10,0,1,0,6.31,16.22C31.49,42.39,54,64.94,54.1,65L64.71,54.39Z" />
  <path
     id="path10"
     style="fill:#d3d7cf;fill-opacity:1"
     d="M102.88,26.12a10,10,0,1,0-16.22,6.31c-.06.08-55.19,55.2-55.23,55.23a10,10,0,0,0-14.81-.74c-6.8,6.8-.94,18.34,8.5,17a10,10,0,1,0,17-5.65C87,53.32,47.15,93.16,97.23,43.08a10,10,0,0,0,14.15,0C118.18,36.28,112.32,24.74,102.88,26.12Z" />
  <path
     id="path12"
     style="fill:#bdbdbd;fill-opacity:1"
     d="M21.72,100.8a3,3,0,0,1-1.24-.27,7.5,7.5,0,0,1-3.7-9.93,3,3,0,1,1,5.46,2.49,1.49,1.49,0,0,0,.74,2,3,3,0,0,1-1.25,5.73Z" />
  <path
     id="path14"
     style="fill:#bdbdbd;fill-opacity:1"
     d="M33,113.05a3,3,0,0,1-1.24-.27,7.5,7.5,0,0,1-3.7-9.93,3,3,0,1,1,5.46,2.49,1.49,1.49,0,0,0,.74,2A3,3,0,0,1,33,113.05Z" />
  <path
     id="path16"
     style="fill:#bcc0b7;fill-opacity:1"
     d="M22.31,42.84a3,3,0,0,1-1.24-.27,7.49,7.49,0,0,1-3.7-9.93,3,3,0,0,1,5.46,2.49,1.49,1.49,0,0,0,.74,2,3,3,0,0,1-1.25,5.73Z" />
  <path
     id="path18"
     style="fill:#bdbdbd;fill-opacity:1"
     d="M91.31,112a3,3,0,0,1-1.24-.27,7.49,7.49,0,0,1-3.7-9.92,3,3,0,0,1,5.46,2.49,1.49,1.49,0,0,0,.74,2A3,3,0,0,1,91.31,112Z" />
  <path
     id="path20"
     style="fill: #fff"
     d="M106.9,42a3,3,0,0,1-2.12-5.12,1.49,1.49,0,0,0,0-2.11A3,3,0,1,1,109,30.55a7.5,7.5,0,0,1,0,10.59A3,3,0,0,1,106.9,42Z" />
  <path
     id="path22"
     style="fill: #fff"
     d="M60.59,58.51,38,35.86a3,3,0,0,1,0-4.24l2.12-2.12L64.83,54.27Z" />
  <path
     id="path24"
     style="fill: #fff"
     d="M92.9,91,78.5,76.71a3,3,0,0,1,0-4.25l2.11-2.11L97.14,86.72Z" />
  <path
     id="path26"
     style="fill: #fff"
     d="M99.35,41.2,42.2,98.36l-.12-.13a10,10,0,0,0-5.44-2.79L91.43,40.65a5.2,5.2,0,0,1,7.37,0Z" />
  <path
     id="path28"
     style="fill: #fff"
     d="M38,29.89a3,3,0,0,1-2.12-5.12.62.62,0,0,0,0-.88l-.12-.09A3,3,0,1,1,39,18.7,6.63,6.63,0,0,1,40.15,29,3,3,0,0,1,38,29.89Z" />
  <path
     id="path30"
     style="fill:#e7ca7a;fill-opacity:1"
     d="M97.49,82.93,84.77,70.22c-2.8-2.8-7,1.44-4.24,4.24l12.71,12.7c-4.29,7,3.18,8.37,4.43,4.61A7,7,0,0,1,109.25,89c5.76,5.76-1.4,15-8.38,11-3.44-2-6.42,3.24-3,5.21a12.79,12.79,0,0,0,2,.91,7,7,0,1,1-11.37-6.31,3,3,0,0,0,.19-4.48l-19.8-19.8L97.48,47.08a13,13,0,1,0,8.43-23.94,13,13,0,1,0-23.4,9.22l-17.8,17.8L46.08,31.52a13,13,0,1,0-23.94-8.43A13,13,0,1,0,31.36,46.5L49.86,65,31.37,83.49a13,13,0,1,0-9.25,23.38,13,13,0,1,0,24-8.38L64.71,79.85,82.49,97.64a13,13,0,1,0,23.37,9.24,13,13,0,1,0-8.38-23.95Zm-62.22-41a13,13,0,0,0,1.22-3.61c.7-3.9-5.2-5-5.91-1.06a7,7,0,1,1-11.83-6.2,7,7,0,0,1,8.55-1c3.38,2.07,6.52-3.05,3.13-5.12a13,13,0,0,0-2.35-1.12A7,7,0,1,1,40,29.64a3,3,0,0,0,0,4.24L60.46,54.39,54.1,60.76ZM40,110.25c-5.76,5.76-15-1.4-11-8.38,2-3.44-3.24-6.42-5.21-3a12.84,12.84,0,0,0-.93,2A7,7,0,1,1,28.64,89c.84.84,1.15,1.46,2.54,1.59,2,.17-.42,1.95,35.65-34.11h0L87.07,36.27c8.09,4.13,8.77-4,4.67-4.69A7,7,0,0,1,88,19.75c5.83-5.83,15.19,1.6,10.94,8.55-2.07,3.38,3.05,6.52,5.12,3.13a13,13,0,0,0,1.12-2.35A7,7,0,1,1,99.35,41a3,3,0,0,0-4.24,0L41.83,94.24A12.93,12.93,0,0,0,39.11,93c-3.76-1.25-5.65,4.45-1.88,5.7A7,7,0,0,1,40,110.25Z" />
  <path
     id="path32"
     style="fill: #fff"
     d="M96.16,25.25A3,3,0,0,1,94,24.37a1.49,1.49,0,0,0-2.11,0,3,3,0,0,1-4.24-4.24,7.5,7.5,0,0,1,10.59,0,3,3,0,0,1-2.12,5.12Z" />
  <text
     transform="matrix(1.3666277,0,0,1.5350414,2.0601568,-34.901044)"
     style="font-style:normal;font-variant:normal;font-weight:bold;font-stretch:normal;font-size:26.6667px;line-height:1.25;font-family:serif;-inkscape-font-specification:'serif Bold';white-space:pre;shape-inside:url(#rect44);stroke-width:0.999732;stroke-miterlimit:4;stroke-dasharray:none;"
     id="text42"
     xml:space="preserve"><tspan
       sodipodi:role="line"
       x="4.4804688"
       y="74.742217"><tspan
         style="fill:#e7ca7a;fill-opacity:1">P</tspan></tspan></text>
  <text
     xml:space="preserve"
     id="text42-8"
     style="font-style:normal;font-variant:normal;font-weight:bold;font-stretch:normal;font-size:26.6667px;line-height:1.25;font-family:serif;-inkscape-font-specification:'serif Bold';white-space:pre;shape-inside:url(#rect44-8);"
     transform="matrix(1.3666277,0,0,1.5350414,87.475282,-34.736577)"><tspan
       sodipodi:role="line"
       x="4.4804688"
       y="74.742217"><tspan
         style="fill:#e7ca7a;fill-opacity:1">P</tspan></tspan></text>
</svg>
